<svg width="1600" height="140" viewBox="0 0 1600 140" fill="none" xmlns="http://www.w3.org/2000/svg">
  <path
    d="M0 74C28 86 48 92 73 86C99 80 118 53 143 51C172 49 191 79 221 82C249 85 271 61 300 57C332 53 352 78 382 86C412 94 437 86 465 72C489 60 508 45 536 44C565 43 585 62 613 71C643 81 668 79 695 66C724 52 747 26 776 25C806 24 827 52 856 67C887 83 915 90 944 83C973 76 993 50 1020 48C1050 45 1070 68 1099 77C1127 86 1151 84 1178 73C1207 61 1228 39 1256 37C1284 35 1305 58 1332 69C1363 82 1391 86 1420 77C1447 69 1466 48 1494 47C1524 46 1546 67 1573 76C1584 80 1592 81 1600 80V140H0V74Z"
    fill="#F6E2C7"
  />
</svg>
